<?xml version="1.0" encoding="UTF-8" standalone="no"?>
<!-- Created with Inkscape (http://www.inkscape.org/) -->

<svg
   width="56.083164mm"
   height="14.15558mm"
   viewBox="0 0 56.083164 14.15558"
   version="1.1"
   id="svg1"
   xmlns="http://www.w3.org/2000/svg"
   xmlns:svg="http://www.w3.org/2000/svg">
  <defs
     id="defs1" />
  <g
     id="layer1"
     transform="translate(-5.7080646,-86.602622)">
    <g
       id="g10">
      <g
         id="g6"
         transform="matrix(0.37569177,0,0,0.37569177,3.5635917,54.06673)">
        <rect
           style="fill:none;fill-opacity:1;stroke:#000000;stroke-width:3.33736;stroke-opacity:1"
           id="rect4"
           width="30.709539"
           height="29.876408"
           x="55.126026"
           y="-130.28714"
           transform="matrix(-0.84668968,0.53208701,-0.80813599,-0.58899595,0,0)" />
        <rect
           style="fill:none;fill-opacity:1;stroke:#000000;stroke-width:3.33736;stroke-opacity:1"
           id="rect5"
           width="30.709539"
           height="29.876408"
           x="43.965229"
           y="-140.36957"
           transform="matrix(-0.84668968,0.53208701,-0.80813599,-0.58899595,0,0)" />
        <rect
           style="fill:#000000;fill-opacity:1;stroke:none;stroke-width:0.994987;stroke-opacity:1"
           id="rect6"
           width="9.1556215"
           height="8.9072351"
           x="60.420486"
           y="-124.75533"
           transform="matrix(-0.84668968,0.53208701,-0.80813599,-0.58899595,0,0)" />
      </g>
      <g
         id="g9"
         transform="matrix(0.37569177,0,0,0.37569177,32.121284,54.066729)">
        <rect
           style="fill:none;fill-opacity:1;stroke:#000000;stroke-width:3.33736;stroke-opacity:1"
           id="rect7"
           width="30.709539"
           height="29.876408"
           x="55.126026"
           y="-130.28714"
           transform="matrix(-0.84668968,0.53208701,-0.80813599,-0.58899595,0,0)" />
        <rect
           style="fill:none;fill-opacity:1;stroke:#000000;stroke-width:3.33736;stroke-opacity:1"
           id="rect8"
           width="30.709539"
           height="29.876408"
           x="43.965229"
           y="-140.36957"
           transform="matrix(-0.84668968,0.53208701,-0.80813599,-0.58899595,0,0)" />
        <rect
           style="fill:#000000;fill-opacity:1;stroke:none;stroke-width:0.994987;stroke-opacity:1"
           id="rect9"
           width="9.1556215"
           height="8.9072351"
           x="60.420486"
           y="-124.75533"
           transform="matrix(-0.84668968,0.53208701,-0.80813599,-0.58899595,0,0)" />
      </g>
    </g>
  </g>
</svg>
