<svg xmlns="http://www.w3.org/2000/svg" width="56.083164mm" height="14.15558mm" viewBox="0 0 56.083164 14.15558">
  <style>
    .stroke { stroke: #000000; }
    .fill { fill: #000000; }
    .none { fill: none; }
    @media (prefers-color-scheme: dark) {
      .stroke { stroke: #ffffff; }
      .fill { fill: #ffffff; }
    }
  </style>
  <g transform="translate(-5.7080646,-86.602622)">
    <g>
      <g transform="matrix(0.37569177,0,0,0.37569177,3.5635917,54.06673)">
        <rect class="none stroke" stroke-width="3.33736" width="30.709539" height="29.876408" x="55.126026" y="-130.28714" transform="matrix(-0.84668968,0.53208701,-0.80813599,-0.58899595,0,0)" />
        <rect class="none stroke" stroke-width="3.33736" width="30.709539" height="29.876408" x="43.965229" y="-140.36957" transform="matrix(-0.84668968,0.53208701,-0.80813599,-0.58899595,0,0)" />
        <rect class="fill" stroke="none" width="9.1556215" height="8.9072351" x="60.420486" y="-124.75533" transform="matrix(-0.84668968,0.53208701,-0.80813599,-0.58899595,0,0)" />
      </g>
      <g transform="matrix(0.37569177,0,0,0.37569177,32.121284,54.066729)">
        <rect class="none stroke" stroke-width="3.33736" width="30.709539" height="29.876408" x="55.126026" y="-130.28714" transform="matrix(-0.84668968,0.53208701,-0.80813599,-0.58899595,0,0)" />
        <rect class="none stroke" stroke-width="3.33736" width="30.709539" height="29.876408" x="43.965229" y="-140.36957" transform="matrix(-0.84668968,0.53208701,-0.80813599,-0.58899595,0,0)" />
        <rect class="fill" stroke="none" width="9.1556215" height="8.9072351" x="60.420486" y="-124.75533" transform="matrix(-0.84668968,0.53208701,-0.80813599,-0.58899595,0,0)" />
      </g>
    </g>
  </g>
</svg>
